<svg viewBox="0 0 250 160" fill="none" xmlns="http://www.w3.org/2000/svg"><path d="M17.84 57.907c6.99-2.925 15.225-2.525 21.457-6.947 7.794-5.53 9.725-16.428 11.614-26.088 1.888-9.66 5.555-20.586 14.45-23.81 7.682-2.784 16.093 1.557 22.262 7.102 6.169 5.545 11.36 12.486 18.554 16.45 10.944 6.03 24.321 3.988 36.109.08s23.274-9.567 35.611-10.436c12.337-.869 26.272 4.647 30.727 16.73 3.33 9.036.742 19.78 4.929 28.414 4.031 8.314 13.151 12.33 19.121 19.246 10.391 12.037 9.233 31.942-.094 44.898-9.329 12.957-25.002 19.568-40.437 20.958-15.434 1.391-30.877-1.819-46.026-5.21-15.149-3.39-30.459-6.999-45.94-6.418-12.857.483-25.443 3.846-38.21 5.508-18.532 2.411-39.385.39-50.938-16.952-8.691-13.045-13.474-24.497-9.24-40.214 2.615-9.705 6.46-19.3 16.05-23.312" fill="#F4EEFF"/><path d="M167.37 65.592c-5.297 0-9.591-4.293-9.591-9.589 0-5.297 4.294-9.59 9.591-9.59s9.591 4.293 9.591 9.59c0 5.296-4.294 9.589-9.591 9.589Zm-26.62-1.066-7.791 5.525 2.518 4.361 2.519 4.361 8.687-3.986a28.073 28.073 0 0 0 5.776 4.849l-2.417 9.243 4.733 1.722 4.733 1.722 4.091-8.634a28.17 28.17 0 0 0 7.542 0l4.092 8.635 4.733-1.723 4.732-1.722-2.417-9.243a28.07 28.07 0 0 0 5.775-4.85l8.689 3.987 2.518-4.36 2.518-4.362-7.791-5.525a27.868 27.868 0 0 0 1.304-7.428l9.218-2.53-.875-4.96-.875-4.958-9.52.774a27.902 27.902 0 0 0-3.777-6.528l5.435-7.862-3.858-3.236-3.858-3.238-6.797 6.713a27.744 27.744 0 0 0-7.09-2.58l-.891-9.51h-10.073l-.89 9.51a27.744 27.744 0 0 0-7.09 2.58l-6.796-6.712-3.859 3.237-3.858 3.236 5.435 7.862a27.902 27.902 0 0 0-3.777 6.528l-9.521-.774-.874 4.959-.875 4.96 9.219 2.529a27.839 27.839 0 0 0 1.303 7.428" fill="#E4D6FF"/><path d="M123.629 34.495a3.735 3.735 0 1 1 3.736-3.734 3.735 3.735 0 0 1-3.736 3.734Zm-10.368-.415-3.035 2.152.982 1.7.98 1.697 3.384-1.552a10.9 10.9 0 0 0 2.25 1.888l-.942 3.6 1.844.671 1.843.67 1.593-3.362a11.016 11.016 0 0 0 2.938 0l1.593 3.363 1.843-.671 1.844-.67-.942-3.601a10.927 10.927 0 0 0 2.25-1.888l3.384 1.552.98-1.698.981-1.699-3.035-2.152c.294-.917.469-1.887.509-2.893l3.589-.985-.34-1.932-.34-1.931-3.709.302a10.883 10.883 0 0 0-1.47-2.543l2.116-3.062-1.502-1.26-1.503-1.261-2.647 2.614a10.816 10.816 0 0 0-2.762-1.004l-.346-3.705h-3.924l-.347 3.705c-.975.21-1.902.552-2.761 1.005l-2.647-2.615-1.503 1.26-1.502 1.261 2.116 3.062a10.886 10.886 0 0 0-1.471 2.543l-3.708-.302-.34 1.932-.341 1.931 3.59.985c.039 1.006.215 1.976.508 2.893Zm38.713-18.43a2.536 2.536 0 1 1 0-5.072 2.536 2.536 0 0 1 0 5.071Zm-7.037-.282-2.06 1.46.666 1.153.666 1.153 2.297-1.054c.447.493.961.925 1.526 1.282l-.639 2.443 1.251.456 1.251.455 1.082-2.283a7.442 7.442 0 0 0 1.993 0l1.082 2.283 1.251-.455 1.251-.456-.639-2.444a7.417 7.417 0 0 0 1.527-1.28l2.296 1.053.666-1.153.666-1.153-2.06-1.46a7.4 7.4 0 0 0 .345-1.964l2.437-.668-.232-1.311-.231-1.312-2.517.206a7.359 7.359 0 0 0-.998-1.727l1.436-2.077-1.019-.856-1.02-.855-1.797 1.774a7.345 7.345 0 0 0-1.874-.682l-.235-2.514h-2.663l-.235 2.514a7.345 7.345 0 0 0-1.874.682l-1.797-1.774-1.02.855-1.02.856 1.437 2.077a7.359 7.359 0 0 0-.998 1.727l-2.517-.206-.231 1.312-.231 1.31 2.436.67a7.36 7.36 0 0 0 .345 1.963" fill="#E4D6FF"/><path d="M221.221 111.248c-2.231 4.098-5.504 7.53-8.028 11.452-1.698 2.642-3.417 6.097-3.51 9.413-.003.056-.003.11-.003.165a10.135 10.135 0 0 0-.286-.37c-.061-.51-.1-1.026-.118-1.54a16.948 16.948 0 0 1-.005-.983c.021-1.127.142-2.258.329-3.376a34.65 34.65 0 0 1 .88-3.798c1.354-4.706 3.399-9.267 3.861-14.142.359-3.762-.247-7.557-.023-11.328a25.977 25.977 0 0 1 4.967-13.754c5.916 8.024 6.702 19.506 1.936 28.261" fill="#027369"/><path d="M228.432 103.339a31.36 31.36 0 0 0-10.496 4.783c.289-1.404.531-2.818.749-4.233.155-1.003.312-2.01.459-3.02a.323.323 0 0 0 .087-.066c2.424-2.539 5.754-3.687 9.05-4.63.424-.121.244-.783-.182-.662-3.165.906-6.357 2.014-8.802 4.27.304-2.25.531-4.514.531-6.778a.383.383 0 0 0 .072-.078c2.234-3.297 5.482-5.622 8.698-7.88.358-.253.016-.847-.346-.593-3.083 2.166-6.173 4.393-8.443 7.427-.137-4.117-.885-8.418.808-12.324.173-.4-.417-.75-.592-.346-1.433 3.306-1.232 6.855-1.019 10.372.128 2.13.094 4.219-.049 6.302-1.414-1.142-2.814-2.314-4.285-3.377-.742-.536-1.521-1.029-2.375-1.369-.285-.114-2.682-.487-2.716-.688-.071-.435-.732-.25-.66.182.091.553.459.698.984.74 1.294.103 2.348.397 3.467 1.083 1.965 1.205 3.725 2.808 5.523 4.253a88.792 88.792 0 0 1-.649 5.513c-.072.492-.145.984-.221 1.476-2.542-1.284-5.092-2.797-7.83-3.578-.425-.121-.606.54-.182.661 2.756.786 5.339 2.347 7.901 3.627-.41 2.563-.908 5.118-1.643 7.605-.358-.302-.617-.706-1-.993-.515-.387-1.134-.59-1.685-.915-1.267-.747-2.264-1.62-3.697-2.073-.421-.134-.602.528-.182.661 1.481.469 2.483 1.441 3.814 2.158.537.289 1.119.49 1.574.914.346.323.582.683.96.947a35.75 35.75 0 0 1-.544 1.608c-.736 1.998-1.686 3.9-2.636 5.802a10.89 10.89 0 0 0-3.868-4.851c-.362-.255-.705.339-.346.592a10.105 10.105 0 0 1 3.681 4.768.343.343 0 0 0 .181.197c-.684 1.376-1.354 2.759-1.929 4.185-1.529 3.795-2.302 8.084-.764 12.002.159.406.823.229.661-.183-2.653-6.76 1.514-13.14 4.362-19.212l.012-.004c3.182-1.487 6.834-.524 10.181-1.274.431-.097.249-.758-.182-.662-3.172.712-6.521-.051-9.598 1.04.212-.474.414-.947.6-1.417.796-2.008 1.386-4.08 1.856-6.183A30.855 30.855 0 0 1 228.613 104c.429-.106.247-.768-.181-.661" fill="#A0D9CA"/><path d="M203.155 111.085c-.168.083-.331.177-.503.249-.969.405-1.807.208-2.581-.455-.537-.46-.83-1.19-1.275-1.734 1.455-.108 3.313.204 4.341 1.196.005.247.01.497.018.744m1.78 3.704c-.164.093-.319.198-.487.281-.94.466-1.789.322-2.604-.289-.565-.425-.905-1.135-1.384-1.649 1.445-.202 3.319-.009 4.408.915.022.246.043.495.067.742Zm2.076 4.701c-.163.093-.319.198-.486.281-.941.465-1.79.322-2.605-.289-.565-.425-.904-1.135-1.383-1.649 1.444-.201 3.319-.009 4.408.915.021.246.043.495.066.742m-5.23-13.186c-.333.126-.791.294-.962.342-.784.222-1.682.298-2.376-.213-.818-.604-1.325-1.781-1.681-2.786.812.051 1.606-.01 2.403.326 1.107.464 1.921 1.322 2.631 2.262l-.015.069m-.653-5.574-.002.002c-.727-.021-1.329-.229-2.03-.542-.688-.308-1.499-.457-2.112-.889-.839-.587-1.179-1.652-1.666-2.571 2.441.503 5.01 1.554 5.81 4m.092-6.319c-1.204-.313-2.514-1.675-3.243-2.52-.992-1.157-1.511-2.455-1.602-3.929 1.195.65 2.512 1.282 3.47 2.214 1.115 1.09 1.234 2.733 1.375 4.235Zm5.377-15.219c-.031 1.432-.039 2.872-.174 4.287-.093.98-.431 1.8-.979 2.61-.313.46-.936 1.566-1.559 2.027a.452.452 0 0 0-.293-.198c-.124-1.632-.083-3.341.384-4.905.43-1.44 1.572-2.67 2.621-3.821m2.053 10.482c-.707.976-1.475 1.932-2.513 2.567-.569.347-1.282.663-1.961.653-.489-.006-1.902-.538-2.146-1.304.951-.78 1.975-1.627 3.184-1.961 1.127-.311 2.288-.06 3.436.045m-2.011 4.738c-.662 2.522-2.831 4.48-5.528 3.775a.772.772 0 0 1 .017-.09.464.464 0 0 0-.221-.476c1.052-1.836 3.729-2.537 5.732-3.21Zm-1.246 5.807c-.261.782-.457 1.593-.848 2.313-.669 1.236-2.055 1.666-3.255 1.044a.352.352 0 0 0 .023-.089c.112-.852 1.397-1.809 2.044-2.26a7.956 7.956 0 0 1 2.036-1.008Zm.679 3.995a5.197 5.197 0 0 1-.827 2.614 5.121 5.121 0 0 1-1.04 1.177c-.22.18-1.964 1.06-1.98.663a.163.163 0 0 0-.007-.05c.43-.807.707-1.667 1.301-2.402a7.165 7.165 0 0 1 2.553-2.002m1.695 4.221c-.101.91-.263 1.844-.782 2.608-.242.357-2.544 2.283-2.91 1.645a.304.304 0 0 0-.178-.148c.483-.923.958-1.945 1.664-2.681.613-.638 1.406-1.056 2.206-1.424m1.935 3.8c-.1.91-.263 1.845-.782 2.608-.242.357-2.544 2.283-2.91 1.645a.307.307 0 0 0-.178-.148c.482-.923.958-1.945 1.664-2.681.613-.637 1.406-1.056 2.206-1.424m-.019 19.878c-.003.056-.003.11-.003.165a10.135 10.135 0 0 0-.286-.37c-1.963-2.475-4.79-4.166-7.641-5.576-3.093-1.527-6.336-2.823-9.104-4.882-3.957-2.946-6.741-7.425-7.633-12.277-.891-4.852.121-10.028 2.775-14.187-.591 6.632 1.765 13.472 6.316 18.33 2.597 2.775 5.815 4.882 8.702 7.35 1.893 1.618 3.669 3.439 4.945 5.59.559.946.987 1.973 1.448 2.969l.048.105a.23.23 0 0 1 .021.055c.128.292.183.649.217 1.021.055.59.058 1.223.195 1.707" fill="#027369"/><path d="M208.246 129.08a20.886 20.886 0 0 0-1.55-1.703.283.283 0 0 0-.17-.193c-.031-.014-.059-.038-.087-.058a4.484 4.484 0 0 0-.124-.116c-.575-.68-.65-2.8-.707-3.408a19.814 19.814 0 0 1-.015-3.331c.032-.441-.654-.439-.686 0a19.95 19.95 0 0 0 .154 4.456c.053.353.092.836.177 1.317-1.512-1.287-3.158-2.43-4.809-3.533a19.195 19.195 0 0 1-.296-8.333c.079-.431-.581-.616-.661-.182a20 20 0 0 0 .12 7.958l-.031-.02-1.256-.834c-.019-.155-.128-.301-.327-.31l-.142-.004a66.674 66.674 0 0 1-2.633-1.841.38.38 0 0 0-.028-.178c-1.121-2.652-1.179-5.546-.223-8.255.147-.417-.515-.597-.661-.183a11.976 11.976 0 0 0-.048 7.88c-1.361-1.079-2.635-2.257-3.733-3.614-.019-.024-.036-.049-.056-.072a15.176 15.176 0 0 1 1.906-9.865c.221-.383-.372-.728-.593-.346a15.877 15.877 0 0 0-2.115 9.113 16.702 16.702 0 0 1-1.981-4.135.312.312 0 0 0 .058-.205 14.161 14.161 0 0 1 3.907-10.417c.305-.32-.179-.805-.485-.485a14.862 14.862 0 0 0-4.049 8.844 20.116 20.116 0 0 1-.269-5.189c.406-5.337 2.848-10.274 5.967-14.537.26-.357-.334-.699-.592-.347-5.041 6.891-8.173 16.047-4.546 24.271a6.26 6.26 0 0 1-.713-.296c-.661-.339-1.143-.93-1.646-1.463-.906-.958-2.504-2.164-2.242-3.651.076-.432-.585-.617-.661-.183-.249 1.414.585 2.376 1.502 3.349.643.682 1.259 1.422 1.965 2.04.655.572 1.387.722 2.165 1.075.017.007.034.011.05.016a16.605 16.605 0 0 0 1.723 2.681l.003.024c.022.138.104.214.203.238.429.53.888 1.032 1.367 1.515-.813-.23-1.68-.34-2.476-.548a34.25 34.25 0 0 1-4.854-1.679c-.401-.173-.751.418-.346.592a35.485 35.485 0 0 0 4.21 1.526c1.431.412 3.235.482 4.497 1.291a.3.3 0 0 0 .273.037c1.216 1.062 2.533 2.027 3.885 2.956a63.008 63.008 0 0 0-4.517.056c-1.615.08-3.086.273-4.546 1.011-.394.2-.047.792.346.592 1.613-.816 3.306-.892 5.078-.955a64.611 64.611 0 0 1 4.7.015c.733.492 1.471.978 2.205 1.467a.31.31 0 0 0 .304.204 74.456 74.456 0 0 1 2.458 1.708c-2.403.224-4.739.83-6.543 2.549-.321.305.165.789.485.485 1.873-1.786 4.39-2.262 6.89-2.413.59.451 1.165.917 1.718 1.404.206.181.406.367.604.555.079.1.167.188.268.259 3.495 3.443 5.615 7.934 5.794 12.909.016.44.701.442.686 0-.15-4.186-1.607-8.247-4.251-11.511" fill="#A0D9CA"/><path d="M216.25 129.73h-13.967a1.44 1.44 0 0 0-1.398 1.789l2.84 11.366a1.44 1.44 0 0 0 1.397 1.091h8.288a1.44 1.44 0 0 0 1.398-1.091l2.84-11.366a1.44 1.44 0 0 0-1.398-1.789Z" fill="#D8E5ED"/><path d="M213.41 143.976h-8.287 8.287a1.44 1.44 0 0 0 1.398-1.091l.209-.835-.209.835a1.44 1.44 0 0 1-1.398 1.091Z" fill="#D6D6D6"/><path d="M200.858 131.386Z" fill="#C9D0D6"/><path d="M213.41 143.976h-8.288a1.44 1.44 0 0 1-1.397-1.091l-2.84-11.366a1.441 1.441 0 0 1 1.398-1.789h1.257c.677 6.217 5.397 11.216 11.477 12.32l-.209.835a1.44 1.44 0 0 1-1.398 1.091" fill="#B5C0C7"/><path d="M209.413 129.516c-.575-3.979-1.151-8.095-2.673-11.84-1.459-3.591-3.589-6.917-4.495-10.721-.482-2.026-.642-4.11-.709-6.188-.066-2.09-.17-4.251.054-6.334.221-2.06 1.111-3.765 2.053-5.569.75-1.434 1.374-2.89 1.319-4.54-.015-.44-.701-.442-.686 0 .068 2.045-1.008 3.742-1.916 5.491-.833 1.605-1.352 3.223-1.493 5.036-.302 3.857-.199 8.086.624 11.876.811 3.735 2.809 7.005 4.312 10.477 1.592 3.679 2.25 7.699 2.827 11.652-.155.084-.252.267-.132.459l.288.465c.218.351.68.105.627-.264Z" fill="#027369"/><path d="M148.381 72.135s-.244 2.238 1.127 3.81c1.375 1.574.564 2.812.352 2.979-.214.166-6.435.307-6.435.307l-.314-.745-.423-.993.786-.882s.174-.193.304-.781c.1-.45.17-1.127.115-2.132l-.004.008c-.037.03-.663.578-1.594 1.394-.837.733-2.22-2.428-2.157-3.918.063-1.493.159-2.068.159-2.068s-.571.193-1.275-.166a.422.422 0 0 1-.211-.538c.274-.696 1.175-1.912.768-3.539a4.058 4.058 0 0 0-.205-.6c-.563-1.308 4.548-2.746 8.036-2.227 1.827.274 3.207 1.082 3.092 2.727-.334 4.788-2.121 7.364-2.121 7.364" fill="#EBC4A1"/><path d="M143.778 75.83c.076-.34.134-.812.134-1.458 0-.206-.006-.43-.019-.674l1.423-1.182s-.415 2.083-1.538 3.314m4.396-3.699c-.016-.082-.469-2.367-.142-2.538.333-.176 1.175-1.716.667-2.081a.254.254 0 0 0-.151-.042c-.328 0-.93.388-1.484.807-.453.549-1.233 1.022-1.233 1.022l.052-.1c.269-.534.969-2.098.879-3.498-.047-.727-.3-.957-.958-.957-.699 0-1.858.26-3.713.457-.258.027-.499.04-.724.04-.768 0-1.35-.15-1.788-.37a4 4 0 0 0-.08-.272c.081.005.164.009.25.01h.103c1.642 0 2.903-.25 3.906-.498 1.003-.248 1.748-.497 2.355-.497.463 0 .847.145 1.205.545 1.189 1.338.193 3.362.014 3.703.135-.22.727-1.093 1.458-1.093a.95.95 0 0 1 .403.092c1.016.474.445 2.765-.637 3.176l-.049.267-.333 1.827" fill="#AB8F75"/><path d="M152.655 64.415c.063 4.83-4.481 7.72-4.481 7.72l.333-1.831.049-.267c1.082-.411 1.653-2.702.637-3.176-.908-.426-1.701.742-1.861 1 .179-.34 1.175-2.364-.014-3.702-.826-.924-1.791-.486-3.56-.048a15.631 15.631 0 0 1-4.009.497c-4.615-.026-1.805-7.467-1.805-7.467 1.048 1.653 3.369.793 3.369.793-1.049-.953-.952-3.05-.952-3.05s.092.163.277.415c.656.911 2.473 2.994 5.375 3.016 3.718.034 6.58 1.272 6.642 6.1" fill="#1A1A1A"/><path d="m148.174 72.135.333-1.831c.175-.097.345-.2.508-.308 1.716-1.156 2.502-3.442 2.087-5.47-.411-2.03-1.909-3.75-3.762-4.673-1.446-.718-3.099-1-4.459-1.875a6.094 6.094 0 0 1-1.828-1.864 6.094 6.094 0 0 1-.415-.815c.656.911 2.473 2.994 5.375 3.016 3.718.034 6.58 1.272 6.642 6.1l.001.099c.001 4.77-4.482 7.62-4.482 7.62" fill="#131313"/><path d="m136.073 118.335-7.979 14.873-.406.758-5.77 10.755h-1.102l5.771-10.755.406-.758 7.979-14.873h1.101Zm15.257 26.386h-1.101l-5.278-9.838-.492-.917-.059-.11-.348-.648-7.979-14.873h1.101l7.777 14.494.203.379.347.648.059.11 5.77 10.755Z" fill="#364F6B"/><path d="m153.828 118.335-7.979 14.873-.348.648-.059.11-.491.917-5.279 9.838h-1.101l5.77-10.755.059-.11.348-.648.203-.379 7.775-14.494h1.102Z" fill="#364F6B"/><path d="M169.085 144.721h-1.102l-5.77-10.755-.406-.758-7.979-14.873h1.101l7.979 14.873.407.758 5.77 10.755Z" fill="#364F6B"/><path d="M163.315 133.966h-36.728l.406-.757h35.915l.407.757Zm1.54-50.361s-9.325.368-9.325 28.22a2.332 2.332 0 0 1-2.332 2.331h-29.839c-1.579 0-2.499 1.777-1.594 3.071.836 1.194 2.313 2.475 4.925 3.31 6.137 1.962 29.807 0 29.807 0s4.31-.492 5.537-6.381c1.227-5.89-6.999-16.442 2.821-30.551M87.54 102.454l8.251 20.065h-25.65v1.212h26.15l8.341 20.285h1.323l-17.091-41.562H87.54" fill="#364F6B"/><path d="M174.76 122.519h-25.681l8.25-20.065h-1.323l-17.091 41.562h1.323l8.342-20.285h26.18v-1.212" fill="#364F6B"/><path d="m141.695 92.91-.452 11.251-11.251 2.02c.398-.539.765-1.071 1.103-1.591 3.496-5.373 3.943-9.54 3.943-9.54l2.458-.79 4.199-1.35" fill="#194866"/><path d="m131.02 104.706.075-.116c2.284-1.23 4.021-2.557 4.749-3.921.096-.181.201-.45.311-.785.542.084 1.367.207 2.37.342-.843 2.208-1.648 3.37-1.648 3.37-1.312.21-3.39.573-5.857 1.11" fill="#153B54"/><path d="M124.19 136.389s3.087 3.058 11.578.771l-3.956-3.858-6.492 1.736-1.13 1.351Zm-22.439-4.575s3.266 5.663 11.66 5.704l-2.068-7.813h-5.458l-4.134 2.109" fill="#1A1A1A"/><path d="M111.178 134.212c-2.522 1.653-3.39 4.092-3.39 4.092l-2.461.85-.413.143-1.138-2.688c.918-.953 1.468-2.225 1.798-3.344.413-1.404.476-2.568.476-2.568l5.128 3.515Z" fill="#F9E0AE"/><path d="m148.339 101.496-3.088 5.236s-6.258 3.155-12.232 6.033a360.735 360.735 0 0 1-4.869 2.306c-2.641 1.22-4.748 2.131-5.504 2.301-2.702.606-4.024 1.625-4.024 1.625-4.549 4.548-5.211 18.521-5.211 18.521-5.954-6.448-11.66-5.704-11.66-5.704s1.417-3.388 3.39-7.487c2.791-5.801 6.693-13.028 9.263-14.094 7.853-4.097 19.089-6.107 22.767-6.683a55 55 0 0 1 1.216-.18l9.952-1.874" fill="#1A1A1A"/><path d="M113.411 137.518a21.404 21.404 0 0 0-3.019-2.726c.242-.201.504-.395.786-.58l-5.128-3.515s-.038.71-.251 1.688c-1.572-.508-2.809-.598-3.483-.598-.358 0-.557.025-.565.027 0 0 1.417-3.388 3.39-7.487-.016.082-.613 3.253 0 5.089.62 1.86 6.368 1.901 6.368 1.901s2.04-8.819 3.308-12.347c1.268-3.528 3.39-3.858 3.39-3.858-.371-3.018 1.406-5.127 2.841-5.623 1.432-.496 7.911-1.819 10.351-2.316 2.439-.496 5.21-1.446 6.285-1.987 1.01-.508-.353-1.409-.521-1.516.619.152 2.13.488 3.447.488l.175-.002c.047-.002.094-.002.142-.002.852 0 1.814.174 2.564.349-3.354 1.114-10.109 3.383-12.134 4.242-2.729 1.157-10.337 2.232-10.751 5.291-.145 1.074-.015 2.464.215 3.866-1.474.536-2.199 1.095-2.199 1.095-2.947 2.946-4.262 9.846-4.824 14.342-.305 2.446-.387 4.179-.387 4.179" fill="#151515"/><path d="M130.503 134.872c-.469 2.149-.524 5.292-.524 5.292h-3.363l-.403-3.161-.272-2.131h4.562Z" fill="#F9E0AE"/><path d="M153.604 115.359c-6.947 3.059-22.082 1.571-22.082 1.571-2.232 8.186 4.246 20.23 4.246 20.23-6.947-2.701-11.578-.772-11.578-.772s-.579-3.018-1.14-6.102a.333.333 0 0 1-.005-.028c-.526-2.887-1.033-5.823-1.033-6.382 0-1.158-1.82-6.781-1.406-9.84.414-3.06 8.022-4.134 10.751-5.291 2.509-1.065 12.286-4.295 13.848-4.81l.211-.069 12.843 5.734s2.292 2.7-4.655 5.759" fill="#1A1A1A"/><path d="M118.263 90.375s-1.213 1.143-1.433 3.817c-.221 2.674-.331 5.11.633 5.738.965.628 3.584-7.061 3.584-7.061l-2.784-2.494" fill="#16405A"/><path d="M112.094 99.156c.205.458.428.843.428.843s-.07.744-.443.659c-.374-.085-.77-.799-.77-.799l-.033-.073-.867-1.868-.003-.886-.002-.83 1.588.18s-.302 1.062-.235 1.734c.009.092.029.194.059.3.064.236.169.498.278.74" fill="#FFD7B6"/><path d="M111.132 99.296c-.1-.378-.171-.796-.142-1.184.036-.494.042-.872.038-1.138v-.038a.338.338 0 0 1 .026-.01c.06.128.11.238.126.281.048.13.098.496.074.995-.017.345.012.458.117.458a.547.547 0 0 0 .19-.056.798.798 0 0 0 .255-.188c.03.111.07.228.114.345-.297.178-.57.323-.663.37a.361.361 0 0 0-.135.165" fill="#D1B095"/><path d="M111.004 96.503s.02.156.024.471c.004.266-.002.644-.038 1.138-.08 1.08.608 2.394.573 2.42-.036.025.032.929-.41.721-.222-.105-.48-.543-.681-.951-.198-.404-.342-.78-.342-.78l-.662-1.886 1.536-1.133" fill="#FFD7B6"/><path d="M110.442 100.211c-.06-.125-.125-.252-.179-.365-.083-.192-.133-.324-.133-.324l-.004-.012c-.18-.575-.45-2.082.902-2.574v.038c-1.001 1.24-.803 2.548-.586 3.237" fill="#D1B095"/><path d="M119.586 97.097c-.17.035-1.009-.025-1.902-.085-1.021-.068-2.111-.137-2.345-.064-.438.138-1.035 1.365-1.845 2.159-.811.794-2.219.909-2.392.848-.173-.061-.034-.721.165-.823.199-.101 1.22-.653 1.534-1.002.206-.228.081-.905-.474-1.195-.263-.139-.624-.19-1.093-.063-.052.014-.106.03-.162.048-1.584.537-1.029 2.423-.884 2.763.145.34.517.974.457 1.147-.062.174-.195.851-.265.873-.07.022-.333-.017-.333-.017-.539-.242-1.09-3.407-1.216-3.869-.125-.46 1.14-1.706 1.811-2.205.672-.5 3.664-1.152 3.664-1.152s.968-.11 1.387-.184c.42-.076 3.314-1.041 3.314-1.041.68.633.94 3.787.579 3.862Z" fill="#FFD7B6"/><path d="m142.48 83.609.249 12.138s-8.643 1.38-13.646 2.113c-5.003.731-11.619 2.07-11.619 2.07 2.439-5.506.799-9.555.799-9.555s4.283-.066 7.531-.126c1.674-.032 3.074-.062 3.468-.08 1.158-.056 3.032-3.225 3.777-3.694.744-.468 7.581-8.13 8.656-8.847 1.075-.717 1.716-.754 1.716-.754l-.931 6.735" fill="#0494EF"/><path d="M117.464 99.93c1.038-2.344 1.337-4.425 1.338-6.04.001-2.18-.539-3.515-.539-3.515s4.283-.066 7.531-.126a6.89 6.89 0 0 1-1.606.608c-2.54.627-2.589 4.19-1.762 5.178.186.223.489.312.864.312 1.287 0 3.436-1.043 4.759-1.297 1.71-.328 4.064-.501 7.12-1.34 1.708-.468 2.147-3.335 2.147-3.335 2.154-12.059 6.095-13.5 6.095-13.5l-.435.532c-1.53 1.695-2.191 5.705-2.604 13.726-.028.538-.068 1.06-.118 1.564-1.461-.5-2.627-.975-2.653-.985 0 0-.758.138-1.75 2.508-.114.27-.21.55-.292.83-1.391.005-2.901.04-3.458.162-1.13.248-3.28 1.543-4.134 1.957-.419.202-1.325.702-2.2 1.197l-.176.052a304.34 304.34 0 0 0-8.127 1.513" fill="#0379C4"/><path d="M135.768 137.16c-2.029-.789-3.861-1.183-5.438-1.345.05-.326.107-.644.173-.943h-4.562l.133 1.04c-1.192.193-1.86.466-1.884.476 0 0-.579-3.018-1.14-6.102.053.245.478 2.017 2.078 3.016.333.209.762.293 1.237.293 1.967 0 4.717-1.451 4.717-1.451-3.093-4.733-2.811-11.708-2.303-15.73a3.275 3.275 0 0 1 3.488-2.859c2.086.155 4.925.281 7.761.281 5.753 0 11.501-.518 10.957-2.363-.992-3.362-7.223-6.287-7.223-6.287l.134-.117c.077.026.187.065.327.117 1.588.586 7.068 2.837 13.101 7.926-.761.699-1.936 1.462-3.72 2.247-.568.25-1.19.469-1.853.662-.473.137-.966.26-1.476.371-3.223.7-7.111.9-10.509.9a94.21 94.21 0 0 1-8.244-.361c-.329 1.206-.469 2.497-.468 3.821.005 7.654 4.714 16.408 4.714 16.408" fill="#151515"/><path d="M143.542 77.333s.294 1.176 1.231 1.397c.937.22 4.668-2.839 4.668-2.839l.565 1.681-5.21 27.286s-2.275-.744-4.011-.703c-1.737.041-3.908-.559-3.908-.559s3.081-4.443 3.495-12.464c.413-8.02 1.074-12.03 2.604-13.725l.435-.533.131.46" fill="#fff"/><path d="M159.558 115.112c-6.867-6.513-13.552-9.268-15.335-9.926-.3-.111-.461-.162-.461-.162s3.419-18.962 3.86-21.388c.441-2.426 1.819-7.745 1.819-7.745 3.86 1.42 6.616 6.422 6.616 6.422a23799.38 23799.38 0 0 0 1.655 19.954c.551 6.726 1.846 12.845 1.846 12.845" fill="#194866"/><path d="M137.601 91.712s-.758.137-1.75 2.507c-.993 2.37-.69 5.348-.4 5.554.289.207 4.011-3.321 4.011-3.321l-1.861-4.74Z" fill="#16405A"/><path d="M144.223 105.186c-.3-.111-.461-.162-.461-.162l.747-4.137c1.511.123 3.03.204 4.395.204 2.583 0 4.616-.292 5.004-1.153.921-2.038 1.935-7.287 2.642-11.706l.574 6.915c-.319 1.853-.587 3.507-.736 4.635-.575 4.342-1.051 5.36-3.119 5.36-.114 0-.231-.003-.355-.008-1.629-.076-3.271-1.089-5.226-1.089-.89 0-1.845.21-2.892.813-.195.113-.386.222-.573.328Zm1.572-11.435c.824-4.565 1.628-9.021 1.827-10.115.441-2.426 1.819-7.745 1.819-7.745 1.194.44 2.282 1.221 3.216 2.091l-.046.004c-.545.042-.95.21-1.247.41-.561.377-.738.871-.738.871-1.736 3.019-3.514 13.395-4.672 14.387a.647.647 0 0 1-.159.097" fill="#153B54"/><path d="M157.118 84.393c-.62 4.59-1.995 12.858-3.21 15.545-1.213 2.687-18.457-.165-18.457-.165s2.233-3.556 2.15-8.062c0 0 2.881 1.176 5.291 1.787 1.398.356 2.637.52 3.062.156 1.158-.992 2.936-11.368 4.672-14.387 0 0 .177-.494.738-.87.297-.201.702-.368 1.247-.411 1.572-.124 5.128 1.82 4.507 6.407" fill="#0494EF"/><path d="M148.904 101.092c-5.241 0-12.748-1.203-13.407-1.31l-.046-.008s.297-.473.67-1.293l.612.121s1.553-2.03 1.571-3.528c0 0-.419-.01-1.043-.016a14.68 14.68 0 0 0 .342-3.11l-.002-.236s2.881 1.176 5.291 1.786c-.424.075-.907.144-1.445.198-2.44.248-1.902 3.431-1.696 4.483.097.487.78.598 1.655.598.368 0 .769-.02 1.175-.04.405-.018.815-.038 1.199-.038.288 0 .561.01.808.04.385.048.948.072 1.597.072 2.206 0 5.406-.272 6.013-.816.786-.702 3.597-13.725 2.729-16.743-.784-2.725-3.057-2.857-3.491-2.857l-.072.001c.297-.2.702-.368 1.247-.41a1.71 1.71 0 0 1 .146-.006c1.5 0 4.429 1.653 4.433 5.368.001.332-.022.68-.072 1.046-.62 4.589-1.995 12.857-3.21 15.545-.388.86-2.421 1.153-5.004 1.153" fill="#0379C4"/><path d="m125.767 98.366-.294.358-.433.53-.317.386-.225.049c-.312.066-.882.18-1.264.224-.129.015-.237.021-.306.015a.238.238 0 0 1-.062-.012c-.22-.092-.257-.258-.257-.258.331-.495 3.158-1.292 3.158-1.292" fill="#F9E0AE"/><path d="M122.991 99.93c-.024 0-.045 0-.063-.002.376-.264 1.354-.901 2.099-1.14a33.77 33.77 0 0 0-1.306.78c-.33.219-.447.293-.487.346a2.51 2.51 0 0 1-.243.017Z" fill="#CCB88F"/><path d="M138.304 95.074c-.018 1.497-1.571 3.528-1.571 3.528s-3.446-.69-4.177-.743c-.73-.053-2.219.468-2.977.757-.758.29-1.847 1.998-2.316 1.984-.258-.007-.256-.242-.203-.451.041-.162.115-.307.121-.32 0 0-1.337.84-1.806.84a.825.825 0 0 1-.564-.242c-.109-.102-.166-.199-.166-.199l-.386.124a1.063 1.063 0 0 1-.65-.006c-.266-.096-.398-.293-.398-.352 0-.032.001-.053.023-.08.04-.053.157-.127.487-.347.183-.123.693-.424 1.306-.778.235-.136.486-.279.74-.423.875-.495 1.781-.995 2.2-1.197.854-.414 3.004-1.71 4.134-1.957 1.131-.248 6.203-.138 6.203-.138" fill="#FFD7B6"/><path d="M124.811 100.427c-.109-.102-.166-.199-.166-.199l1.83-.896s-.964.763-1.664 1.095Zm2.249-.278c.041-.162.115-.307.121-.32v-.001l.655-.399-.776.72Z" fill="#D1B095"/><path d="M129.979 140.164h-1.233c.339-1.293.758-3.312.247-3.499-.495-.211-.922-.295-1.29-.295-.688 0-1.167.297-1.49.633l-.139-1.091a15.255 15.255 0 0 1 2.451-.191c.557 0 1.16.027 1.805.094-.31 2.02-.351 4.349-.351 4.349" fill="#CCB88F"/><path d="m126.074 135.912-.133-1.04h4.562c-.066.299-.123.616-.173.943a17.452 17.452 0 0 0-1.804-.094c-.966 0-1.79.083-2.452.191Z" fill="#111"/><path d="M130.503 144.657c-.585.107-8.632 1.008-11.33-.536a2.484 2.484 0 0 1-.276-.181s-.744-.634-.524-.937c.221-.303 1.626-.909 4.107-1.626 2.481-.717 3.263-.962 4.017-2.148 0 0 1.394 1.18 3.527-.224 0 0-.19 1.399.55 2.98.136.29.303.585.507.881 0 0 .028 1.68-.578 1.791" fill="#1A1A1A"/><path d="M130.503 144.657c-.585.107-8.632 1.008-11.33-.536 2.01-.058 7.239-.381 11.401-2.136.136.29.303.585.507.881 0 0 .028 1.68-.578 1.791" fill="#FEE2B3"/><path d="M105.327 139.154c1.031-2.386 3.505-4.157 3.505-4.157-1.049-1.223-2.37-1.615-3.258-1.732.09-.308.164-.605.225-.88 1.335.432 2.913 1.167 4.593 2.407a9.325 9.325 0 0 0-1.8 2.002c-.572.858-.804 1.51-.804 1.51l-2.461.85Z" fill="#CCB88F"/><path d="M110.392 134.792c-1.68-1.24-3.258-1.975-4.593-2.407.213-.978.251-1.688.251-1.688l5.128 3.515c-.282.185-.544.38-.786.58" fill="#111"/><path d="M108.698 141.515c-.682.246-9.537 3.62-10.822 3.159a.368.368 0 0 1-.04-.017c-1.13-.551-1.158-.606-1.213-.937-.055-.331 4.025-2.811 7.154-7.111 0 0 1.218 1.555 4.323 1.012 0 0 .18.729.64 1.482.128.21.279.422.453.62.8.909.193 1.543-.495 1.792" fill="#1A1A1A"/><path d="M108.698 141.515c-.682.246-9.537 3.62-10.822 3.159 2.285-.806 7.904-2.955 10.864-5.57.128.21.279.421.453.62.8.909.193 1.543-.495 1.791" fill="#FEE2B3"/><path d="M62.257 144.016h-1.324l17.092-41.562h1.323l-17.091 41.562Zm120.356 0h1.324l-17.091-41.562h-1.324l17.091 41.562" fill="#364F6B"/><path d="M178.782 101.71H66.212a.978.978 0 0 0-.978.978v1.094a3.198 3.198 0 0 0 3.198 3.198h108.006a3.198 3.198 0 0 0 3.199-3.198v-1.218a.854.854 0 0 0-.855-.854" fill="#fff"/><path d="M130.325 100.302h-8.689a.387.387 0 0 0-.387.387v1.02h10.484c0-.777-.63-1.407-1.408-1.407Zm-15.329 1.407h-7.034c0-.94.86-1.702 1.923-1.702h3.188c1.062 0 1.923.762 1.923 1.702" fill="#364F6B"/><path d="M111.683 100.26h-1.891v-.288c0-.079.064-.143.143-.143h1.604c.079 0 .144.064.144.143v.288" fill="#364F6B"/><path d="M110.995 63.04H67.312c-1.984 0-3.084 1.632-2.456 3.644l6.693 21.433c.628 2.011 2.746 3.643 4.73 3.643h43.683c1.985 0 3.085-1.632 2.456-3.644l-6.692-21.432c-.628-2.012-2.747-3.644-4.731-3.644" fill="#E1E1E1"/><path d="M110.995 63.04H67.312c-1.984 0-3.084 1.632-2.456 3.644l6.693 21.433c.628 2.011 2.746 3.643 4.73 3.643h43.683c1.985 0 3.085-1.632 2.456-3.644l-6.692-21.432c-.628-2.012-2.747-3.644-4.731-3.644" fill="#C7C7C7"/><path d="M76.179 91.438c-1.804 0-3.737-1.49-4.309-3.322l-6.692-21.433c-.572-1.831.43-3.322 2.234-3.322h43.684c1.804 0 3.737 1.49 4.308 3.322l6.693 21.433c.572 1.832-.431 3.322-2.234 3.322H76.179" fill="#364F6B"/><path d="M103.635 87.034h-2.027l-.232-.745h2.026l.233.745Zm3.037 0h-2.026l-.233-.745h2.026l.233.745Zm3.037 0h-2.026l-.232-.745h2.026l.232.745Z" fill="#243B4F"/><path d="m86.508 100.195-.058.106h10.238v1.409H71.271v-1.409h10.1l.06-.106 1.174-2.15 3.432-6.285.177-.322 4.398-7.993h-1.656l.41-1.111h7.916l-.41 1.11H95.69l-4.398 7.995-.177.321-3.432 6.284-1.175 2.151Z" fill="#364F6B"/><path d="M86.45 100.302h-5.078l.058-.107 1.175-2.15h5.078l-1.175 2.15-.058.107" fill="#2C4158"/><path d="M95.834 75.65c.79 2.192-.344 3.97-2.537 3.97-2.192 0-4.612-1.778-5.403-3.97-.791-2.191.344-3.968 2.536-3.968 2.193 0 4.611 1.777 5.403 3.968M72.502 57.373h-.669v-.668h.669v.668Zm0-4.676h-.669v-.924h.669v.924Zm0 2.467h-.669v-.925h.669v.925Zm0-9.864h-.669v-.924h.669v.924Zm0 2.466h-.669v-.924h.669v.924Zm0 2.466h-.669v-.925h.669v.925Zm0-7.398h-.669V42.5h-.334v-.668h1.003v1.002Zm-6.269-.334h-1.215v-.668h1.215v.668Zm3.24 0H68.26v-.668h1.215v.668Zm-32.406 0h-1.215v-.668h1.215v.668Zm3.241 0h-1.216v-.668h1.216v.668Zm3.24 0h-1.215v-.668h1.216v.668Zm3.241 0h-1.215v-.668h1.215v.668Zm3.241 0h-1.216v-.668h1.216v.668Zm3.24 0h-1.215v-.668h1.216v.668Zm3.24 0h-1.214v-.668h1.215v.668Zm3.242 0h-1.216v-.668h1.215v.668Zm3.24 0h-1.215v-.668h1.215v.668Zm-29.165 0h-.669v-.668h.669v.668Z" fill="#243B4F"/><path d="M157.805 55.287c.367-4.962 4.509-8.874 9.565-8.874a9.594 9.594 0 0 1 8.882 5.965h-12.167c-.192 0-.394.049-.587.142l-5.693 2.767" fill="#C0C6CC"/><path d="M156.751 55.658c-.591 0-1.009-.474-.838-1.133l.558-2.148.418-1.608 2.944-11.331c.163-.625.801-1.131 1.425-1.131h19.251c.624 0 .999.506.837 1.13l-3.068 11.81c-.163.624-.8 1.13-1.425 1.13h-.601a9.594 9.594 0 0 0-8.882-5.964 9.592 9.592 0 0 0-9.565 8.873l-.468.227a1.34 1.34 0 0 1-.586.145" fill="#9AB2C3"/><path d="M178.172 35.991h-19.251c-.624 0-1.263.507-1.424 1.13l-2.945 11.333-.418 1.608-.558 2.147c-.224.863.561 1.408 1.424.989l6.161-2.994c.192-.093.394-.142.587-.142h12.767c.625 0 1.263-.506 1.425-1.131l3.069-11.81c.162-.623-.213-1.13-.837-1.13Z" fill="#16405A"/><path d="M174.295 32.926h-19.25c-.625 0-1.263.506-1.425 1.13l-2.944 11.332-.419 1.608-.557 2.148c-.225.862.561 1.407 1.423.988l6.162-2.993c.192-.094.394-.143.586-.143h12.768c.624 0 1.263-.506 1.424-1.13l3.069-11.81c.162-.624-.212-1.13-.837-1.13Z" fill="#673AB7"/><path d="M164.586 37.913h-9.356l.21-.807h9.355l-.209.807Zm6.279 2.509h-16.286l.21-.808h16.286l-.21.809Zm-2.969 2.508h-13.969l.21-.807h13.969l-.21.807Z" fill="#fff"/><path d="M29.42 36.982H8.485a2.1 2.1 0 0 0-2.1 2.1v6.168c0 1.16.94 2.1 2.1 2.1H29.42a2.1 2.1 0 0 0 2.1-2.1v-6.168a2.1 2.1 0 0 0-2.1-2.1Z" fill="#673AB7"/><path d="M12.166 43.905a1.562 1.562 0 0 1-.61-.473l.564-.677c.238.322.51.482.814.482.413 0 .62-.242.62-.726v-2.087h-1.54v-.815h2.549v2.845c0 .539-.133.943-.401 1.212-.267.27-.66.404-1.178.404a1.99 1.99 0 0 1-.818-.165m5.06-.633a.63.63 0 0 0 .276-.342v-.344h-.67c-.401 0-.602.131-.602.394a.35.35 0 0 0 .148.298c.097.073.232.11.403.11a.85.85 0 0 0 .445-.116Zm.834-2.325c.28.249.42.624.42 1.125v1.923h-.915v-.42c-.184.314-.527.47-1.028.47-.259 0-.484-.043-.674-.131a1.01 1.01 0 0 1-.435-.364.947.947 0 0 1-.15-.526.88.88 0 0 1 .354-.74c.235-.179.6-.268 1.093-.268h.777c0-.213-.065-.377-.194-.492-.13-.115-.324-.173-.583-.173-.18 0-.356.029-.53.085a1.397 1.397 0 0 0-.441.229l-.351-.684c.184-.129.404-.229.66-.3.258-.071.522-.106.794-.106.522 0 .923.124 1.203.372m4.586-.323-1.422 3.371h-1.009l-1.416-3.37h1.01l.933 2.293.964-2.294h.94Zm2.018 2.648a.63.63 0 0 0 .276-.342v-.344h-.67c-.401 0-.602.131-.602.394a.35.35 0 0 0 .148.298c.097.073.232.11.403.11a.85.85 0 0 0 .445-.116Zm.833-2.325c.28.249.42.624.42 1.125v1.923h-.915v-.42c-.183.314-.526.47-1.027.47-.259 0-.483-.043-.674-.131a1.01 1.01 0 0 1-.435-.364.947.947 0 0 1-.15-.526.88.88 0 0 1 .353-.74c.236-.179.601-.268 1.094-.268h.777c0-.213-.065-.377-.194-.492-.13-.115-.324-.173-.583-.173-.18 0-.356.029-.53.085a1.404 1.404 0 0 0-.441.229l-.351-.684c.184-.129.404-.229.66-.3.258-.071.522-.106.793-.106.523 0 .924.124 1.203.372" fill="#fff"/><path d="M48.733 78.97h-19.37a1.942 1.942 0 0 0-1.942 1.942v5.706c0 1.073.87 1.943 1.943 1.943h19.37c1.072 0 1.942-.87 1.942-1.943v-5.706c0-1.073-.87-1.943-1.943-1.943Z" fill="#673AB7"/><path d="M35.126 83.391c.147-.122.22-.294.22-.519 0-.227-.073-.403-.22-.525-.147-.12-.361-.182-.643-.182h-.766v1.409h.766c.282 0 .496-.061.643-.183Zm.345-1.811c.265.12.469.29.612.51.143.22.214.481.214.782 0 .298-.071.558-.214.78a1.371 1.371 0 0 1-.612.51 2.288 2.288 0 0 1-.936.177h-.818v1.119h-.939V81.4h1.757c.36 0 .671.06.936.18m5.215-.18v4.058h-.939v-1.664h-1.844v1.664h-.939V81.4h.94V83h1.843v-1.6h.94Zm3.311 1.991c.147-.122.22-.294.22-.519 0-.227-.073-.403-.22-.525-.147-.12-.362-.182-.643-.182h-.766v1.409h.766c.281 0 .496-.061.643-.183Zm.345-1.811c.265.12.468.29.612.51.143.22.214.481.214.782 0 .298-.071.558-.214.78a1.371 1.371 0 0 1-.612.51 2.288 2.288 0 0 1-.936.177h-.818v1.119h-.94V81.4h1.758c.36 0 .671.06.936.18" fill="#fff"/><path d="M86.205 10.918H66.642a1.962 1.962 0 0 0-1.962 1.962v5.764c0 1.083.878 1.962 1.962 1.962h19.563a1.962 1.962 0 0 0 1.963-1.962V12.88a1.962 1.962 0 0 0-1.963-1.962Z" fill="#673AB7"/><path d="M71.93 13.795v4.098h-.95v-1.68h-1.86v1.68h-.949v-4.098h.949v1.616h1.861v-1.616h.95Zm1.82.773h-1.31v-.773h3.572v.773H74.7v3.325h-.948v-3.325Zm6.5 3.325-.005-2.458-1.207 2.025h-.427l-1.2-1.973v2.406h-.89v-4.098h.784l1.534 2.547 1.511-2.547h.779l.012 4.098h-.89Zm1.863-4.098h.948v3.326h2.055v.772h-3.003v-4.098" fill="#fff"/><path d="M125.401 24.954h-16.655a1.67 1.67 0 0 0-1.671 1.67v4.908c0 .922.748 1.67 1.671 1.67h16.655a1.67 1.67 0 0 0 1.671-1.67v-4.907a1.67 1.67 0 0 0-1.671-1.67Z" fill="#673AB7"/><path d="M110.883 28.765a.398.398 0 0 0 .137-.323.403.403 0 0 0-.137-.328c-.092-.075-.226-.113-.401-.113h-.478v.878h.478c.175 0 .309-.038.401-.114Zm.215-1.13a.87.87 0 0 1 .381.318c.09.138.134.3.134.489a.873.873 0 0 1-.134.486.854.854 0 0 1-.381.319 1.44 1.44 0 0 1-.585.11h-.509v.698h-.586v-2.532h1.095c.225 0 .419.037.585.113Zm3.253-.112v2.532h-.585v-1.038h-1.151v1.038h-.586v-2.532h.586v.998h1.151v-.998h.585Zm1.816 1.635v.897h-.586v-.904l-.98-1.628h.622l.676 1.125.677-1.125h.575l-.984 1.635" fill="#fff"/><path d="M117.874 28h-.81v-.477h2.206v.478h-.81v2.054h-.586V28Zm3.306 1.496a.74.74 0 0 0 .284-.287.844.844 0 0 0 .103-.42.84.84 0 0 0-.103-.42.737.737 0 0 0-.284-.287.804.804 0 0 0-.405-.103.804.804 0 0 0-.405.103.744.744 0 0 0-.284.288.84.84 0 0 0-.103.42c0 .156.034.296.103.419a.746.746 0 0 0 .284.287.804.804 0 0 0 .405.103.804.804 0 0 0 .405-.103Zm-1.116.432a1.256 1.256 0 0 1-.674-1.139 1.26 1.26 0 0 1 .674-1.14c.212-.113.448-.17.711-.17.263 0 .499.057.709.17a1.276 1.276 0 0 1 .677 1.14 1.273 1.273 0 0 1-.677 1.14 1.47 1.47 0 0 1-.709.169c-.263 0-.499-.057-.711-.17Zm4.86-2.405v2.532h-.481l-1.262-1.538v1.538h-.579v-2.532h.485l1.258 1.537v-1.537h.579Z" fill="#fff"/><path d="M139.96 37.604h-18.753a1.881 1.881 0 0 0-1.881 1.881v5.526a1.88 1.88 0 0 0 1.881 1.88h18.753a1.881 1.881 0 0 0 1.881-1.88v-5.526a1.88 1.88 0 0 0-1.881-1.88Z" fill="#673AB7"/><path d="M127.304 44.21a1.4 1.4 0 0 1-.548-.423l.505-.606c.214.288.457.432.73.432.371 0 .556-.217.556-.651v-1.87h-1.381v-.728h2.285v2.547c0 .483-.12.845-.36 1.086-.239.241-.591.362-1.055.362-.266 0-.51-.05-.732-.149m3.435.023a2.114 2.114 0 0 1-.699-.328l.309-.685c.168.123.368.223.601.298.231.074.463.112.696.112.257 0 .449-.038.572-.116.124-.076.185-.178.185-.305a.296.296 0 0 0-.109-.233.839.839 0 0 0-.281-.149 5.576 5.576 0 0 0-.463-.123 6.438 6.438 0 0 1-.736-.214 1.197 1.197 0 0 1-.491-.342c-.136-.157-.205-.367-.205-.628 0-.229.062-.435.186-.62.123-.186.309-.333.558-.441.249-.109.553-.163.912-.163.251 0 .496.03.736.09.239.06.449.145.628.258l-.28.69a2.193 2.193 0 0 0-1.089-.308c-.255 0-.442.04-.564.123a.377.377 0 0 0-.183.325c0 .135.071.236.211.3.14.066.354.13.642.195.3.07.545.142.736.213.191.071.354.183.491.337.136.153.205.36.205.622 0 .225-.063.43-.188.615a1.27 1.27 0 0 1-.564.44c-.251.109-.556.163-.915.163a3.22 3.22 0 0 1-.901-.126" fill="#fff"/><path d="M76.758 25.298h-.668v-.886h.668v.886Zm0 3.564h-.668v-1.337h.668v1.337Zm0 3.564h-.668v-1.337h.668v1.337Zm0 3.564h-.668v-1.337h.668v1.337Zm0 3.564h-.668v-1.337h.668v1.337Zm0 3.563h-.668v-1.336h.668v1.337Zm0 3.564h-.668v-1.336h.668v1.336Zm0 3.565h-.668v-1.337h.668v1.337Zm0 3.563h-.668v-1.336h.668v1.337Zm0 3.564h-.668v-1.336h.668v1.336Zm-33.903-.085h-1.337v-.669h1.337v.669Zm3.565 0h-1.337v-.669h1.337v.669Zm3.564 0h-1.337v-.669h1.337v.669Zm3.565 0h-1.337v-.669h1.337v.669Zm3.564 0h-1.336v-.669h1.336v.669Zm3.565 0h-1.337v-.669h1.337v.669Zm3.565 0h-1.337v-.669h1.337v.669Zm3.564 0H66.47v-.669h1.337v.669Zm-28.424.76h-.669V56.62h.576v.334h.093v1.095Zm0 3.564h-.669v-1.337h.669v1.337Zm0 3.564h-.669V63.84h.669v1.336Zm0 3.563h-.669v-1.336h.669v1.336Zm0 3.565h-.669v-1.337h.669v1.337Zm0 3.563h-.669v-1.336h.669v1.336Zm48.925-33.285H86.97v-.668h1.337v.668Zm3.565 0h-1.337v-.668h1.337v.668Zm3.564 0H94.1v-.668h1.337v.668Zm3.565 0h-1.337v-.668h1.337v.668Zm3.564 0h-1.336v-.668h1.336v.668Zm3.565 0h-1.337v-.668h1.337v.668Zm3.565 0h-1.337v-.668h1.337v.668Zm3.564 0h-1.337v-.668h1.337v.668Zm3.564 0h-1.336v-.668h1.336v.668Zm-32.213.535h-.67v-1.203h.802v.668h-.132v.535Zm0 3.564h-.67v-1.336h.67v1.336Zm0 3.565h-.67v-1.337h.67v1.337Zm0 3.563h-.67v-1.336h.67v1.336Zm0 3.564h-.67v-1.337h.67v1.337Zm-2.461-27.96h-1.337v-.669h1.336v.669Zm3.564 0h-1.337v-.669h1.337v.669Zm3.565 0h-1.337v-.669h1.337v.669Zm3.564 0h-1.337v-.669h1.337v.669Zm3.565 0H95.07v-.669h1.337v.669Zm3.564 0h-1.336v-.669h1.336v.669Zm3.565 0H102.2v-.669h1.337v.669ZM80.93 32.426h-.668V31.09h.668v1.336Zm0 3.564h-.668v-1.337h.668v1.337Zm0 3.564h-.668v-1.337h.668v1.337Zm0 3.564h-.668V41.78h.668v1.337Zm0 3.563h-.668v-1.336h.668v1.336Zm0 3.565h-.668v-1.337h.668v1.337Zm0 3.563h-.668v-1.336h.668v1.337Zm0 3.564h-.668v-1.336h.668v1.336Z" fill="#243B4F"/><path d="M92.61 34.266H57.643a3.502 3.502 0 0 0-3.503 3.502v26.547a3.502 3.502 0 0 0 3.503 3.502H92.61a3.503 3.503 0 0 0 3.502-3.502V37.768a3.502 3.502 0 0 0-3.502-3.502Z" fill="#fff"/><path d="M92.61 34.266H57.643a3.502 3.502 0 0 0-3.503 3.502v1.241h41.974v-1.241a3.502 3.502 0 0 0-3.502-3.502Z" fill="#364F6B"/><path d="M90.451 51.538H57.644v-9.64H90.45v9.64Z" fill="#0494EF"/><path d="M62.322 57.612h-4.678v-4.676h4.678v4.676Z" fill="#FF3E0D"/><path d="M62.322 63.687h-4.678V59.01h4.678v4.677Z" fill="#FDD45B"/><path d="M74.047 53.545h-9.316v-.609h9.316v.61Zm4.487 0h-3.408v-.609h3.408v.61Z" fill="#4E99FF"/><path d="M82.99 53.545h-3.406v-.609h3.407v.61Zm-5.815 1.349H64.731v-.61h12.444v.61Z" fill="#FDD45B"/><path d="M90.451 54.894H78.007v-.61h12.444v.61Z" fill="#FF3E0D"/><path d="M77.175 56.242H64.731v-.61h12.444v.61Z" fill="#4E99FF"/><path d="M90.451 56.242H78.007v-.61h12.444v.61Z" fill="#FDD45B"/><path d="M74.047 60.304h-9.316v-.609h9.316v.61Z" fill="#FF3E0D"/><path d="M78.534 60.304h-3.408v-.609h3.408v.61Zm4.456 0h-3.406v-.609h3.407v.61Z" fill="#4E99FF"/><path d="M77.175 61.653H64.731v-.609h12.444v.61Z" fill="#FDD45B"/><path d="M90.451 61.653H78.007v-.609h12.444v.61Z" fill="#4E99FF"/><path d="M77.175 63.001H64.731v-.61h12.444v.61Z" fill="#FF3E0D"/><path d="M90.451 63.001H78.007v-.61h12.444v.61Z" fill="#FDD45B"/><path d="M58.595 36.638a.92.92 0 1 1-1.841 0 .92.92 0 0 1 1.841 0Z" fill="#FF3E0D"/><path d="M61.549 36.638a.92.92 0 1 1-1.842 0 .92.92 0 0 1 1.842 0Z" fill="#FDD45B"/><path d="M64.502 36.638a.92.92 0 1 1-1.84 0 .92.92 0 0 1 1.84 0Z" fill="#4E99FF"/><path d="M221.989 38.787h-28.225a2.59 2.59 0 0 0-2.59 2.589v24.866a2.59 2.59 0 0 0 2.59 2.59h28.225a2.59 2.59 0 0 0 2.59-2.59V41.376a2.59 2.59 0 0 0-2.59-2.589Z" fill="#fff"/><path d="M221.989 38.787h-28.225a2.59 2.59 0 0 0-2.59 2.589v1.379h33.405v-1.38a2.59 2.59 0 0 0-2.59-2.588Z" fill="#16405A"/><path d="M195.097 40.77a.857.857 0 1 1-1.713 0 .857.857 0 0 1 1.713 0Z" fill="#FF3E0D"/><path d="M198.05 40.77a.856.856 0 1 1-1.711.002.856.856 0 0 1 1.711-.002Z" fill="#FDD45B"/><path d="M201.003 40.77a.856.856 0 1 1-1.711.002.856.856 0 0 1 1.711-.002Zm-7.353 6.511h3.544v.8h-3.544v-.8Z" fill="#4E99FF"/><path d="M206.419 47.281v.8h-8.369v-.8h8.369Z" fill="#FDD45B"/><path d="M207.276 47.281h3.756v.8h-3.756v-.8Z" fill="#4E99FF"/><path d="M221.67 47.281v.8h-9.781v-.8h9.781Zm-19.863 2.449v.8h-8.157v-.8h8.157Z" fill="#FF3E0D"/><path d="M202.663 49.73h3.756v.8h-3.756v-.8Z" fill="#4E99FF"/><path d="M221.67 49.73v.8h-14.394v-.8h14.394Z" fill="#FDD45B"/><path d="M201.807 52.18v.8h-8.157v-.8h8.157Z" fill="#FF3E0D"/><path d="M211.032 52.18v.8h-8.369v-.8h8.369Z" fill="#FDD45B"/><path d="M221.67 52.18v.8h-9.781v-.8h9.781Z" fill="#FF3E0D"/><path d="M211.032 54.63v.8H193.65v-.8h17.382Z" fill="#4E99FF"/><path d="M211.889 54.63h3.757v.8h-3.757v-.8Z" fill="#FDD45B"/><path d="M221.67 54.63v.8h-5.168v-.8h5.168Zm-19.863 2.45v.8h-8.157v-.8h8.157Z" fill="#FF3E0D"/><path d="M211.032 57.08v.8h-8.369v-.8h8.369Zm10.638 0v.8h-9.781v-.8h9.781Z" fill="#4E99FF"/><path d="M193.65 59.53h3.544v.8h-3.544v-.8Z" fill="#FDD45B"/><path d="M201.807 59.53v.8h-3.757v-.8h3.757Zm13.839 0v.8h-12.983v-.8h12.983Z" fill="#4E99FF"/><path d="M221.67 59.53v.8h-5.168v-.8h5.168Zm-28.02 2.45h3.544v.8h-3.544v-.8Z" fill="#FF3E0D"/><path d="M206.419 61.98v.8h-8.369v-.8h8.369Z" fill="#4E99FF"/><path d="M211.032 61.98v.8h-3.756v-.8h3.756Z" fill="#FDD45B"/><path d="M221.67 61.98v.8h-9.781v-.8h9.781Z" fill="#FF3E0D"/><path d="M198.477 15.649h-14.081a2.603 2.603 0 0 0-2.603 2.603V32.33a2.603 2.603 0 0 0 2.603 2.602h14.081a2.602 2.602 0 0 0 2.603-2.602V18.25a2.603 2.603 0 0 0-2.603-2.602Z" fill="#673AB7"/><path d="M191.437 26.996a1.662 1.662 0 1 1 0-3.323 1.662 1.662 0 0 1 0 3.323Zm-4.613-.185-1.35.958.436.756.436.755 1.506-.69c.294.322.63.605 1.001.84l-.419 1.602.82.298.82.298.709-1.496a4.816 4.816 0 0 0 1.307 0l.709 1.496.82-.298.821-.298-.419-1.602c.37-.235.707-.518 1-.84l1.506.69.436-.755.436-.756-1.349-.958c.13-.408.208-.84.226-1.287l1.597-.438-.152-.86-.151-.859-1.65.134a4.84 4.84 0 0 0-.654-1.13l.941-1.363-.668-.561-.669-.56-1.178 1.162a4.821 4.821 0 0 0-1.228-.447l-.154-1.647h-1.746l-.154 1.647a4.814 4.814 0 0 0-1.229.447l-1.177-1.163-.669.561-.669.56.942 1.363a4.844 4.844 0 0 0-.655 1.131l-1.649-.134-.152.86-.151.859 1.597.439c.018.446.095.879.226 1.286Z" fill="#fff"/></svg>
