<svg viewBox="0 0 247 40" fill="none" xmlns="http://www.w3.org/2000/svg"><g clip-path="url(#scrimba dark-logo 1__a)"><path d="M42.936 11.265H25.32c-2.092 0-3.816 1.725-3.816 3.853v.991c0 2.129 1.724 3.817 3.853 3.817h17.614a3.814 3.814 0 0 0 3.817-3.817v-.99c0-2.13-1.725-3.854-3.817-3.854h-.036ZM33.43 21.54h-8.587a3.303 3.303 0 0 0-3.34 3.303v.844c0 1.835 1.468 3.34 3.303 3.34h8.624a3.289 3.289 0 0 0 3.303-3.303v-.88a3.289 3.289 0 0 0-3.303-3.304Zm-.514 9.065H15.303c-2.129 0-3.817 1.724-3.817 3.853v.954c0 2.128 1.688 3.853 3.817 3.853h17.614a3.853 3.853 0 0 0 3.854-3.853v-.917a3.853 3.853 0 0 0-3.854-3.854v-.036Zm-27.963 0h-1.1c-2.13 0-3.854 1.724-3.854 3.89v.954a3.853 3.853 0 0 0 3.853 3.853h1.101c2.129 0 3.817-1.725 3.817-3.853v-.954c0-2.129-1.688-3.854-3.817-3.854v-.036Zm50.826 1.467c.917 5.432 6.238 7.707 12.403 7.707 6.973 0 12-3.046 12-8.918 0-3.89-2.311-6.862-7.302-7.926l-6.239-1.248c-1.651-.367-1.981-1.1-1.981-1.835 0-.954.733-2.091 3.009-2.091 2.569 0 4.147 1.467 4.403 3.119l7.707-1.505c-1.064-4.587-5.431-7.633-12-7.633-6.68 0-11.376 3.523-11.376 8.954 0 4.147 2.789 6.79 7.706 7.67l5.358 1.064c1.945.367 2.605 1.028 2.605 1.945 0 1.138-1.174 2.092-3.412 2.092-2.239 0-4.294-.844-4.661-3.083l-8.22 1.688Zm39.266.33c-3.78 0-6.312-2.752-6.312-6.605 0-3.853 2.532-6.642 6.312-6.642 2.679 0 4.844 1.468 5.578 4.66l7.89-1.871c-1.468-6.238-7.046-10.165-13.468-10.165-7.89 0-14.422 5.688-14.422 13.982 0 8.366 6.532 14.018 14.422 14.018 6.569 0 12.11-4.037 13.468-10.312l-7.743-1.688c-.881 3.192-3.046 4.624-5.725 4.624Zm32.183-20.183a10.202 10.202 0 0 0-9.101 5.395v-5.028h-8.44v26.422h8.44v-8.33c0-6.826 3.193-9.908 9.101-9.908h1.505l.367-8.404c-.624-.147-1.138-.184-1.872-.184v.037ZM135.156 0a4.767 4.767 0 0 0-4.474 2.928 4.778 4.778 0 0 0-.37 1.843c0 2.715 2.018 4.697 4.844 4.697 2.862 0 4.881-1.982 4.881-4.697 0-2.57-2.019-4.771-4.881-4.771Zm4.22 38.972V12.55h-8.44v26.42h8.44Zm36.074-27.155a11.38 11.38 0 0 0-9.358 4.403 9.798 9.798 0 0 0-8.624-4.403 9.91 9.91 0 0 0-7.78 3.192v-2.422h-8.44v26.422h8.44V26.054c0-4.404 1.982-6.679 5.028-6.679 2.532 0 4.477 1.872 4.477 4.88v14.716h8.44V26.054c0-4.404 2.018-6.679 5.138-6.679 2.458 0 4.403 1.872 4.403 4.88v14.716h8.367V22.458c0-6.422-4.477-10.642-10.091-10.642Zm27.889 0c-3.376 0-6.128 1.027-8.183 2.862V1.1h-8.44v37.871h8.44V36.88c2.055 1.835 4.771 2.899 8.22 2.899 6.973 0 12.881-5.652 12.881-14.019 0-8.293-5.872-13.944-12.881-13.944h-.037Zm-1.688 20.807a6.605 6.605 0 0 1-6.495-6.862 6.61 6.61 0 0 1 3.95-6.271 6.601 6.601 0 0 1 2.545-.555c3.67 0 6.349 2.789 6.349 6.826 0 4.11-2.679 6.862-6.349 6.862Zm45.321-20.037h-8.44v2.092c-2.018-1.835-4.771-2.9-8.183-2.9-6.973 0-12.881 5.689-12.881 13.982 0 8.367 5.871 14.019 12.881 14.019 3.412 0 6.165-1.064 8.22-2.936v2.128h8.403V12.55v.036Zm-14.899 20.037c-3.669 0-6.348-2.752-6.348-6.862 0-4.037 2.679-6.826 6.348-6.826a6.606 6.606 0 0 1 6.496 6.826 6.613 6.613 0 0 1-3.941 6.304 6.606 6.606 0 0 1-2.555.558Z" fill="#2B283A"/></g><defs><clipPath id="scrimba dark-logo 1__a"><path fill="#fff" d="M0 0h246.972v40H0z"/></clipPath></defs></svg>